 <svg width="100" height="100" viewBox="0 0 100 100" fill="none"
                xmlns="http://www.w3.org/2000/svg">
                <mask id="mask0" mask-type="alpha" maskUnits="userSpaceOnUse"
                    x="0"
                    y="0" width="100" height="100">
                    <rect width="100" height="100" fill="#C4C4C4" />
                    </mask>
                    <g mask="url(#mask0)">
                        <circle cx="50" cy="50" r="48.5" stroke="black"
                            stroke-width="3" stroke-dasharray="15 15">
                            <animateTransform attributeName="transform"
                                attributeType="XML"
                                type="rotate"
                                from="0 50 50"
                                to="360 50 50"
                                dur="5s"
                                repeatCount="indefinite"
                                />

                            </circle>
                            <path d="M78.96 35.47C80.34 33.97 81.57 32.92 82.65
                                32.32C83.73 31.66 84.9 31.33 86.16 31.33C87.96
                                31.33
                                88.86 32.05 88.86 33.49C88.86 34.33 88.38 35.02
                                87.42 35.56C86.52 36.04 85.35 36.28 83.91
                                36.28C83.43 36.28 82.83 36.22 82.11 36.1C81.45
                                35.98
                                80.4 35.77 78.96 35.47ZM42.87 52.75C39.09 52.03
                                36.87 49.18 36.21 44.2C37.35 44.86 38.28 45.46
                                39
                                46C39.78 46.54 40.41 47.14 40.89 47.8C41.37 48.4
                                41.76 49.09 42.06 49.87C42.36 50.65 42.63 51.61
                                42.87 52.75ZM35.31 43.84C35.55 45.46 35.82 46.81
                                36.12 47.89C36.48 48.97 36.93 49.87 37.47
                                50.59C38.07 51.31 38.79 51.91 39.63 52.39C40.53
                                52.87 41.64 53.32 42.96 53.74C42.96 54.04 42.96
                                54.37 42.96 54.73C43.02 55.03 43.05 55.33 43.05
                                55.63C43.05 57.85 42.18 60.25 40.44 62.83C39
                                65.05
                                37.17 66.79 34.95 68.05C32.73 69.31 30.42 69.94
                                28.02 69.94C25.74 69.94 23.82 69.19 22.26
                                67.69C20.76 66.19 20.01 64.3 20.01 62.02C20.01
                                60.34
                                20.28 58.75 20.82 57.25C21.42 55.69 22.2 54.34
                                23.16
                                53.2C24.18 52.06 25.35 51.16 26.67 50.5C27.99
                                49.84
                                29.37 49.51 30.81 49.51C31.71 49.51 32.58 49.69
                                33.42 50.05C34.26 50.41 34.98 50.92 35.58
                                51.58C36.24 52.18 36.75 52.87 37.11 53.65C37.53
                                54.43 37.74 55.27 37.74 56.17C37.74 56.65 37.68
                                57.16 37.56 57.7C37.44 58.24 37.29 58.66 37.11
                                58.96L36.3 60.49C36.24 60.55 36.21 60.67 36.21
                                60.85C36.21 60.97 36.33 61.09 36.57 61.21C36.69
                                61.21 36.78 61.12 36.84 60.94L37.74 59.5C37.98
                                59.14
                                38.16 58.66 38.28 58.06C38.46 57.4 38.55 56.77
                                38.55
                                56.17C38.55 54.07 37.77 52.3 36.21 50.86C34.71
                                49.42
                                32.85 48.7 30.63 48.7C29.07 48.7 27.6 49.06
                                26.22
                                49.78C24.84 50.5 23.64 51.46 22.62 52.66C21.6
                                53.86
                                20.76 55.27 20.1 56.89C19.5 58.51 19.2 60.22
                                19.2
                                62.02C19.2 64.66 19.98 66.79 21.54 68.41C23.16
                                70.03
                                25.29 70.84 27.93 70.84C29.97 70.84 31.95 70.42
                                33.87 69.58C35.79 68.68 37.47 67.48 38.91
                                65.98C40.41 64.48 41.58 62.77 42.42 60.85C43.32
                                58.93 43.77 56.92 43.77 54.82V53.83C46.29 53.53
                                48.3
                                52.6 49.8 51.04C51.36 49.42 52.14 47.47 52.14
                                45.19V44.29L51.78 42.31C51.66 41.65 51.54 41.23
                                51.42 41.05C51.36 40.81 51.27 40.69 51.15
                                40.69C50.85 40.69 50.7 40.84 50.7 41.14C50.7
                                41.26
                                50.7 41.35 50.7 41.41C50.76 41.47 50.79 41.62
                                50.79
                                41.86C50.97 42.52 51.09 43.09 51.15 43.57C51.27
                                44.05 51.33 44.53 51.33 45.01C51.33 47.23 50.61
                                49.09 49.17 50.59C47.73 52.09 45.93 52.84 43.77
                                52.84C43.47 51.52 43.11 50.41 42.69 49.51C42.33
                                48.61 41.88 47.8 41.34 47.08C40.8 46.36 40.11
                                45.7
                                39.27 45.1C38.43 44.44 37.41 43.78 36.21
                                43.12C36.93
                                40.84 37.68 39.1 38.46 37.9C39.24 36.7 40.41
                                35.47
                                41.97 34.21C45.81 31.09 50.25 29.53 55.29
                                29.53C56.55 29.53 57.72 29.59 58.8 29.71C59.94
                                29.83
                                61.14 30.07 62.4 30.43C63.66 30.73 65.04 31.15
                                66.54
                                31.69C68.1 32.23 69.93 32.92 72.03 33.76C72.69
                                34.06
                                73.47 34.39 74.37 34.75C75.27 35.11 76.35 35.53
                                77.61 36.01C77.25 36.61 76.95 37.12 76.71
                                37.54C76.47 37.9 76.29 38.17 76.17 38.35L73.2
                                44.29C72.84 45.01 72.51 45.64 72.21 46.18C71.91
                                46.72 71.52 47.41 71.04 48.25C70.62 49.03 70.05
                                50.02 69.33 51.22C68.61 52.36 67.65 53.92 66.45
                                55.9C65.79 57.04 65.22 58 64.74 58.78C64.26 59.5
                                63.78 60.19 63.3 60.85C62.88 61.51 62.4 62.2
                                61.86
                                62.92C61.38 63.64 60.75 64.51 59.97 65.53C60.99
                                63.49 61.71 61.81 62.13 60.49C62.55 59.11 62.76
                                57.79 62.76 56.53C62.76 56.17 62.73 55.84 62.67
                                55.54C62.67 55.24 62.61 54.79 62.49 54.19C62.43
                                53.59 62.31 52.81 62.13 51.85C61.95 50.83 61.68
                                49.45 61.32 47.71C61.2 46.99 61.11 46.27 61.05
                                45.55C60.99 44.83 60.96 44.11 60.96 43.39C60.96
                                39.67 62.73 36.61 66.27 34.21L67.53 33.4C67.65
                                33.28
                                67.71 33.19 67.71 33.13C67.71 32.83 67.29 32.56
                                66.45 32.32C64.89 31.72 63.54 31.3 62.4
                                31.06C61.26
                                30.82 60.15 30.7 59.07 30.7C56.73 30.7 54.57
                                30.94
                                52.59 31.42C50.61 31.84 48.9 32.44 47.46
                                33.22C46.08
                                34 45 34.93 44.22 36.01C43.44 37.09 43.05 38.26
                                43.05 39.52V40.24C43.17 40.6 43.35 40.96 43.59
                                41.32C43.89 41.68 44.28 41.98 44.76 42.22C44.94
                                42.34 45.09 42.4 45.21 42.4C45.45 42.4 45.57
                                42.28
                                45.57 42.04V41.95C45.57 41.83 45.54 41.77 45.48
                                41.77C45.48 41.71 45.42 41.62 45.3 41.5L44.4
                                40.87C43.92 40.51 43.68 39.97 43.68 39.25C43.68
                                38.23 44.07 37.27 44.85 36.37C45.69 35.41 46.77
                                34.57 48.09 33.85C49.41 33.13 50.94 32.56 52.68
                                32.14C54.42 31.72 56.22 31.51 58.08 31.51C59.58
                                31.51 60.9 31.63 62.04 31.87C63.18 32.05 64.59
                                32.47
                                66.27 33.13C64.83 34.27 63.72 35.17 62.94
                                35.83C62.22 36.49 61.44 37.33 60.6 38.35C59.88
                                39.13
                                59.28 39.85 58.8 40.51C58.32 41.11 57.84 41.8
                                57.36
                                42.58C56.94 43.3 56.46 44.14 55.92 45.1C55.44
                                46.06
                                54.84 47.29 54.12 48.79C53.7 49.69 53.25 50.62
                                52.77
                                51.58C52.29 52.54 51.78 53.53 51.24 54.55C50.46
                                56.05 49.71 57.4 48.99 58.6C48.33 59.8 47.67
                                60.94
                                47.01 62.02C46.35 63.04 45.66 64.03 44.94
                                64.99C44.28 65.95 43.53 66.94 42.69 67.96C40.59
                                70.54 38.49 72.37 36.39 73.45C34.29 74.47 31.74
                                74.98 28.74 74.98C26.46 74.98 24.36 74.65 22.44
                                73.99C20.58 73.27 18.96 72.31 17.58 71.11C16.26
                                69.91 15.21 68.47 14.43 66.79C13.71 65.05 13.35
                                63.16 13.35 61.12C13.35 58.72 13.83 56.44 14.79
                                54.28C15.81 52.12 17.13 50.23 18.75 48.61C20.43
                                46.99 22.38 45.73 24.6 44.83C26.88 43.87 29.28
                                43.39
                                31.8 43.39C32.4 43.39 32.91 43.42 33.33
                                43.48C33.81
                                43.54 34.47 43.66 35.31 43.84ZM35.4 43.03C34.44
                                42.91 33.69 42.82 33.15 42.76C32.61 42.7 31.98
                                42.67
                                31.26 42.67C28.74 42.67 26.34 43.18 24.06
                                44.2C21.84
                                45.16 19.86 46.48 18.12 48.16C16.44 49.84 15.09
                                51.79 14.07 54.01C13.11 56.23 12.63 58.57 12.63
                                61.03C12.63 63.25 13.02 65.29 13.8 67.15C14.58
                                68.95
                                15.69 70.51 17.13 71.83C18.57 73.15 20.28 74.17
                                22.26 74.89C24.24 75.61 26.4 75.97 28.74
                                75.97C34.62
                                75.97 39.63 73.42 43.77 68.32C44.37 67.54 44.94
                                66.76 45.48 65.98C46.02 65.14 46.59 64.27 47.19
                                63.37C47.97 62.23 48.66 61.15 49.26 60.13C49.86
                                59.05 50.46 57.97 51.06 56.89C51.66 55.81 52.26
                                54.64 52.86 53.38C53.46 52.12 54.15 50.68 54.93
                                49.06C55.35 48.16 55.68 47.41 55.92 46.81C56.22
                                46.21 56.49 45.67 56.73 45.19C57.03 44.71 57.33
                                44.23 57.63 43.75C57.99 43.27 58.41 42.7 58.89
                                42.04C58.23 44.02 57.78 45.64 57.54 46.9C57.3
                                48.16
                                57.18 49.69 57.18 51.49C57.18 52.15 57.18 52.78
                                57.18 53.38C57.24 53.92 57.3 54.49 57.36
                                55.09L57.72
                                60.49C57.72 60.73 57.72 60.97 57.72 61.21C57.78
                                61.45 57.81 61.72 57.81 62.02C57.81 63.58 57.63
                                65.11 57.27 66.61C56.91 68.05 56.43 69.16 55.83
                                69.94C55.29 70.66 55.02 71.17 55.02 71.47C55.02
                                72.13 55.32 72.46 55.92 72.46C56.28 72.46 56.73
                                72.16 57.27 71.56C57.87 70.9 58.68 69.82 59.7
                                68.32C60.9 66.52 62.04 64.78 63.12 63.1C64.2
                                61.36
                                65.46 59.35 66.9 57.07C67.8 55.63 68.58 54.34
                                69.24
                                53.2C69.96 52 70.59 50.92 71.13 49.96C71.73 49
                                72.24
                                48.1 72.66 47.26C73.14 46.42 73.59 45.58 74.01
                                44.74C74.79 43.18 75.42 41.92 75.9 40.96C76.38
                                40
                                76.71 39.37 76.89 39.07C77.25 38.41 77.82 37.51
                                78.6
                                36.37C81 36.97 82.74 37.27 83.82 37.27C85.56
                                37.27
                                87 36.94 88.14 36.28C89.34 35.56 89.94 34.69
                                89.94
                                33.67C89.94 31.63 88.59 30.61 85.89 30.61C84.45
                                30.61 83.16 30.97 82.02 31.69C80.94 32.35 79.65
                                33.55 78.15 35.29C75.87 34.39 73.98 33.64 72.48
                                33.04C71.04 32.44 69.81 31.96 68.79 31.6C67.83
                                31.18
                                66.99 30.88 66.27 30.7C65.61 30.46 64.95 30.25
                                64.29
                                30.07C62.55 29.53 60.78 29.14 58.98 28.9C57.24
                                28.66
                                55.5 28.54 53.76 28.54C50.7 28.54 48.21 28.84
                                46.29
                                29.44C44.37 29.98 42.57 30.94 40.89 32.32C39.09
                                33.76 37.77 35.29 36.93 36.91C36.15 38.47 35.64
                                40.51 35.4 43.03Z" fill="#EF5DA8" />
                                <circle cx="50" cy="50" r="44" stroke="black" />
                                </g>
                            </svg>